<svg xmlns="http://www.w3.org/2000/svg" viewBox="0 0 800 800"><defs><style>.cls-1{fill:#fff;}.cls-2{fill:#969595;}.cls-3{fill:#0c222b;}.cls-4{fill:#05181e;}.cls-5{fill:#7a3d0f;}.cls-6{fill:#964c0f;}.cls-7{fill:#f8bc91;}.cls-8{fill:#d19066;}.cls-9{fill:#d19065;}.cls-10{fill:#d9d9d8;}.cls-11{fill:#adacac;}.cls-12{fill:#8e8e8e;}.cls-13{fill:#333;}.cls-14{fill:#2b2826;}.cls-15{fill:#422918;}.cls-16{fill:#f16e21;}.cls-17{fill:none;stroke:#422918;stroke-linejoin:round;stroke-width:2px;}.cls-18{fill:#ec6e24;}.cls-19{fill:#d93738;}.cls-20{fill:#c10e1f;}.cls-21{fill:#1e1c3c;}.cls-22{fill:#c46f00;}.cls-23{fill:#303030;}.cls-24{fill:#9d9d9c;}.cls-25{fill:#706f6f;}.cls-26{fill:#f39200;}.cls-27{fill:#b95241;}.cls-28{fill:#a03224;}.cls-29{fill:#2c2c44;}.cls-30{fill:#191933;}.cls-31{fill:#c6c6c6;}.cls-32{fill:#bc111a;}.cls-33{fill:#a03527;}.cls-34{fill:#1c9699;}.cls-35{fill:#107777;}.cls-36{fill:#662900;}.cls-37{fill:#4c1f00;}.cls-38{fill:#f9ae85;}.cls-39{fill:#eaeaea;}.cls-40{fill:#873a06;}.cls-41{fill:#723710;}.cls-42{fill:#4c1f09;}.cls-43{fill:#39b4bc;}</style></defs><title>109542-ONJ5K5-587</title><g id="BACKGROUND"><rect class="cls-1" width="800" height="800"/></g><g id="OBJECTS"><rect class="cls-2" x="33.43" y="602.46" width="692.32" height="12.16" rx="6.08" ry="6.08"/><path class="cls-3" d="M104.07,436.06l.57-14.18,5.77,6.83h47.44l7.32,94.74v64.44H134.9V527.63l-11.1-33.38h0l-9.91-14.9C106.47,468.2,103.55,449.45,104.07,436.06Z"/><polygon class="cls-4" points="161.62 435.89 153.18 434.71 155.29 479.68 155.29 587.89 165.17 587.89 165.17 523.45 161.62 435.89"/><polygon class="cls-4" points="141.67 428.88 141.67 433.1 153.18 434.71 152.91 428.88 141.67 428.88"/><path class="cls-5" d="M137.12,608.54h56.13a3,3,0,0,0,3-3h0a18.76,18.76,0,0,0-18.75-18.76H134.13v18.76A3,3,0,0,0,137.12,608.54Z"/><path class="cls-6" d="M94.58,608.54h52.63a3,3,0,0,0,3-3h0a18.75,18.75,0,0,0-18.75-18.76H91.59v18.76A3,3,0,0,0,94.58,608.54Z"/><path class="cls-7" d="M264.82,319.92c2-1.6,3.53-3.57,3.39-4.59a1.2,1.2,0,0,0-1.49-.95c.64-1,1.11-3.41.48-3.88-1-.74-1.55-.24-2.51.95a3.37,3.37,0,0,0-.27-2.64c-1.08-1.61-4.65,3.84-6.84,5.64-1.94,1.59-3.91,3.14-6,4.53a30.28,30.28,0,0,1-3.75,2.22c-1,.47-2.65,1.4-3.68.85-2-1.08-.33-4.44.34-5.89.51-1.11,2.24-3.68,1.52-5-1-1.72-5.12,1.23-6.91,5.44s-1.71,3.15-3.62,6.94a14.22,14.22,0,0,1-2,3.07c-1,1.14-2.34,2-3.42,3.09s-2.41,2.46-3.59,3.72q-2.84,3-5.56,6.16c-.49.57-1,1.14-1.47,1.72,0,0,1.22,1,3,2.25H237.2a14.15,14.15,0,0,1,6.8-5.88,60,60,0,0,0,10.85-5.88C268.18,322.74,268.33,321.19,264.82,319.92Z"/><path class="cls-8" d="M231.22,328.69c-.39.33-.78.66-1.14,1-1.22,1.22-2.41,2.46-3.59,3.72q-2.84,3-5.56,6.16c-.49.57-1,1.14-1.48,1.72,0,0,1.23,1,3,2.25H237.2a12.94,12.94,0,0,1,4.37-4.59A75.6,75.6,0,0,1,231.22,328.69Z"/><path class="cls-9" d="M258.66,327.41a80.87,80.87,0,0,1-13.08,6h0s-8.45,2.68-9.65,9.5a4.18,4.18,0,0,1-.16.59h1.43a14,14,0,0,1,6.8-5.87h0a60,60,0,0,0,10.85-5.88c6.67-4.53,10-7.19,11.3-8.87C264.17,324.19,261.7,325.66,258.66,327.41Z"/><path class="cls-10" d="M183.86,352.85c.36-.5,5.9-23.59,6.31-24.05l9,27.47L227.25,329s9.36,9.55,13.83,14.59L209.9,373.72a16.72,16.72,0,0,1-26-20.87Z"/><path class="cls-11" d="M224.92,354.18q-16.09,4.62-32.3,8.85c-3.8,1-7.58,2.12-11.39,3.18a16.7,16.7,0,0,0,28.67,7.51L232.37,352C229.89,352.74,227.41,353.47,224.92,354.18Z"/><path class="cls-11" d="M209.9,369.25a16.7,16.7,0,0,1-28.94-9,16.71,16.71,0,0,0,28.94,13.49l31.18-30.13c-.64-.71-1.38-1.53-2.17-2.38Z"/><path class="cls-11" d="M183.86,352.85c.36-.5,5.9-23.59,6.31-24.05l9,27.47,2-1.95v24.49a16.71,16.71,0,0,1-17.28-26Z"/><path class="cls-4" d="M134.9,538.41l21.68-106.84-17.89-2.86H116.62l-5,47c.71,1.23,1.44,2.44,2.23,3.62l9.91,14.9,11.1,33.38Z"/><polygon class="cls-3" points="108.05 425.24 91.59 586.79 116 586.79 152.4 426.65 108.05 425.24"/><polygon class="cls-7" points="189.87 296.68 177.12 320.5 159.33 305.51 170.56 283.64 189.87 296.68"/><path class="cls-8" d="M166.44,291.69a49.28,49.28,0,0,0,10.81,7.39,50,50,0,0,0,9.44,3.53l3.41-6.38-19.31-13Z"/><path class="cls-7" d="M176.69,211.8c23.93-5.53,32.12,12.43,32.12,12.43s6.56,14.37,3.93,20.26c-2.76,6.22.27,14.65,3.08,20.25,6.8,13.58,3.71,26.74-6.37,34-8.47,6.07-23,2.54-31.54-1.72a53.58,53.58,0,0,1-16.74-13.48c-4.13-4.89-8.08-10.71-9.83-16.95C148.39,256.06,152.76,217.32,176.69,211.8Z"/><path class="cls-8" d="M170.87,284.93C166.73,280,162.79,274.22,161,268a19.93,19.93,0,0,1-.5-2.61h-9.47c.09.43.18.83.28,1.19,1.75,6.24,5.7,12.06,9.83,16.95A53.58,53.58,0,0,0,177.91,297a47.67,47.67,0,0,0,19.15,4.94,50.14,50.14,0,0,1-9.45-3.52A53.47,53.47,0,0,1,170.87,284.93Z"/><path class="cls-8" d="M208.81,224.23s-8.19-18-32.12-12.43c-.62.14-1.22.32-1.81.5a63.23,63.23,0,0,0-8.74,5.82c-.53.16-1,.33-1.55.5-13.27,13.08-15.61,39.54-13.25,47.94,1.75,6.24,5.7,12.06,9.83,16.95.91,1.08,1.87,2.12,2.85,3.13,4.92-3.29,7.43-9.88,4.59-12.29-4.09-3.46-7.37-20.25-.53-24a5,5,0,0,1,5.17-4.42,5,5,0,0,1,4.12,2,6.09,6.09,0,0,1,4.11,3.85c.18.46.35.91.53,1.36h3.16c.39-7.55,4.75-13,13.12-11.56a18.7,18.7,0,0,0,3.93.27,13.88,13.88,0,0,0,10.58-5.57A65.46,65.46,0,0,0,208.81,224.23Z"/><path class="cls-8" d="M177,246.53s-9.48-3.26-8.93,8.7,10,15.49,14.45,13.72c0,0-11.06,8.15-19.07-9.79s12.18-18.34,12.18-18.34Z"/><path class="cls-10" d="M168.33,299.19c-20.06-5.11-37.9,20.17-43.17,30.25-13.66,26.12-14.07,50.22-20.52,91.75,1.91,2.33.68-.08,3.28,1.12a78,78,0,0,0,13,4.5c9.35,2.45,19,3.73,28.52,5,4.47.59,8.94,1.1,13.41,1.56,2.61-6.39,2.43-13.36,4.1-20.19,1-4,0-3,1.81-6.75.67-5.69,4.82-10.71,7.21-16.24,2.12-4.91,4.74-9.62,6.57-14.65s3.18-10.44,4.67-15.66c2.68-9.4,4.86-18.78,5.49-28.47C191.28,316.16,184.55,303.32,168.33,299.19Z"/><path class="cls-11" d="M173.09,313.63c-6.38-2.44-14.18-6.29-17.31-12.81a17.81,17.81,0,0,1,12.55-1.63c11.28,2.87,18,10,21.49,19.13A116,116,0,0,1,173.09,313.63Z"/><path class="cls-11" d="M172.12,300.4c11.57,14.47,9.5,40.39,3.79,62.22L154.1,432.4c2.93.37,5.86.69,8.8,1,2,.19,5.43-16.2,5.91-18,3.6-13.74,8.94-26.52,13.78-39.8,1.86-5.1,3.18-10.44,4.67-15.66,2.67-9.38,4.85-18.74,5.49-28.42C191.4,317.45,185.62,305.47,172.12,300.4Z"/><path class="cls-11" d="M191.25,322.81c-.11-.07-12.06-8.82-17.44-13.52-.64-2.3,3.17-.54,2.2-2.59a66.11,66.11,0,0,1,9.39,3.56A36,36,0,0,1,191.25,322.81Z"/><path class="cls-12" d="M176.75,311.75c-1.09-.89-2.1-1.73-2.94-2.46-.64-2.3,3.17-.54,2.2-2.59a66.11,66.11,0,0,1,9.39,3.56,31.13,31.13,0,0,1,2.6,4.12A105.09,105.09,0,0,1,176.75,311.75Z"/><path class="cls-11" d="M155,396.29h0c8.14.94,18.7-1.73,20.13-5.06,2.12-5-12.36-14.26-9.58-18.81l1.88-21.6V334.11c0-4.53-1.78-8.82-4.95-11.26a12.11,12.11,0,0,0-5.94-2.46c-.28,0-1.89,3.56-2.17,3.55-7.17-.34-10.67,6.71-11.14,12l-2.27,46.83C140.17,392.44,149.81,396.29,155,396.29Z"/><path class="cls-10" d="M163.88,293.71l23.5,12.9,2.07,6.91s-24.26-3.22-32.39-13.28Z"/><path class="cls-11" d="M178.5,310.87c-3.84-3.3-5.76-8.12-7-13l15.9,8.73,2.07,6.91a98.59,98.59,0,0,1-10.22-2.07C179,311.26,178.73,311.07,178.5,310.87Z"/><path class="cls-13" d="M216.07,220.16c2.21,8.84-4.07,17.77-13.17,18.12A18.66,18.66,0,0,1,199,238c-11.56-2-15.47,9.14-11.87,20.8a2.41,2.41,0,0,1-2.31,3.12h0a2.42,2.42,0,0,1-2.36-1.85c-1.07-4.43-4.45-15.22-11.81-13.92-9.24,1.63-5.75,21-1.34,24.71s-4.08,17.64-14.51,13.41-31.26-56.42,12-69.64c0,0,20.3-16.86,36.24-10A22,22,0,0,1,216.07,220.16Z"/><path class="cls-14" d="M156.28,282.54c-8.31-3.37-23.24-37.21-7-57.51-18.59,20-3,55.78,5.51,59.25,5.59,2.26,10.62-.68,13.41-4.47C165.27,282.67,161,284.44,156.28,282.54Z"/><path class="cls-14" d="M204.41,236.55a19.39,19.39,0,0,1-3.93-.28c-5.08-.88-8.69.79-10.82,3.92,2.17-2,5.27-2.88,9.31-2.18a18.66,18.66,0,0,0,3.93.27,13.9,13.9,0,0,0,10.77-5.81A13.85,13.85,0,0,1,204.41,236.55Z"/><path class="cls-14" d="M186.3,260.19a2.42,2.42,0,0,1-2.36-1.84c-1.07-4.44-4.45-15.22-11.81-13.92a5.93,5.93,0,0,0-4.15,2.91,5.86,5.86,0,0,1,2.64-1.18c7.36-1.3,10.74,9.49,11.81,13.92a2.42,2.42,0,0,0,4.72-.06A2.43,2.43,0,0,1,186.3,260.19Z"/><path class="cls-15" d="M201.56,276.81s9,3.77,15.55,2.39c0,0,.15,12-8.35,12.53S201.56,276.81,201.56,276.81Z"/><path class="cls-16" d="M214,289.15a12.36,12.36,0,0,0-2.74-2.79,14.18,14.18,0,0,0-9.52-3.31c.55,4.23,2.23,9,7,8.68A7.3,7.3,0,0,0,214,289.15Z"/><path class="cls-1" d="M216.7,283.06a20.65,20.65,0,0,0,.41-3.86c-6.59,1.38-15.55-2.39-15.55-2.39a31.93,31.93,0,0,0,0,3.92C204.75,281.85,211.19,283.71,216.7,283.06Z"/><path class="cls-17" d="M201.56,276.81s9,3.77,15.55,2.39c0,0,.15,12-8.35,12.53S201.56,276.81,201.56,276.81Z"/><path class="cls-18" d="M218.47,259.93c-1.78-1.18-5.47-7.39-6.79-11.24l-3.14.89c1.08,4.69,5.34,20.18,7.84,21.39C223.74,274.54,229.21,267.1,218.47,259.93Z"/><path class="cls-7" d="M238.18,371.57c2.46-.56,4.75-1.61,5.08-2.59a1.2,1.2,0,0,0-.91-1.52c1-.63,2.53-2.55,2.17-3.26-.55-1.09-1.28-.89-2.67-.26a3.41,3.41,0,0,0,.94-2.49c-.25-1.92-5.88,1.36-8.64,2-2.45.56-4.9,1.07-7.38,1.39a30.19,30.19,0,0,1-4.35.3c-1.08,0-3,.07-3.67-.88-1.34-1.88,1.7-4.12,2.94-5.12,1-.76,3.65-2.29,3.59-3.78-.08-2-5.13-1.19-8.61,1.77s-2.94,2.06-6.34,4.6a11.55,11.55,0,0,1-4.32,2.21l-.59,0-.27.05h0c-8.13,2.52-17.11,6.4-17.11,6.4s.66,1.43,1.69,3.36l13.17,6.59a14.12,14.12,0,0,1,8.72-2.21h0a60.67,60.67,0,0,0,12.33-.4C239.92,375.59,240.74,374.27,238.18,371.57Z"/><path class="cls-9" d="M203.78,364.45c-7.75,2.5-15.75,6-15.75,6s.66,1.43,1.69,3.36l13.17,6.59a13.81,13.81,0,0,1,8.06-2.25C208.62,373.53,206.06,369.05,203.78,364.45Z"/><path class="cls-19" d="M190.65,400l-.73,1.65a1.69,1.69,0,0,1-2.79.45l-1.77-1.95a1.69,1.69,0,0,1-.43-1.13V315.14l5.19,2.39.67,81.81A1.86,1.86,0,0,1,190.65,400Z"/><polygon class="cls-20" points="184.93 319.3 190.12 319.12 190.12 317.53 184.93 316.09 184.93 319.3"/><path class="cls-10" d="M152.72,360.6c.56-.26,15-15.61,15.54-15.81l-3.93,26.3,37.91-9.9s3.44,12.92,4.85,19.51l-42,10.89a16.72,16.72,0,0,1-12.41-31Z"/><path class="cls-11" d="M164.7,387.66a17.44,17.44,0,0,1-21.25-9.09l-.09-.23a16.45,16.45,0,0,0,1.39,4.53,16.72,16.72,0,0,0,20.38,8.72l42-10.89c-.24-1.12-.54-2.43-.87-3.82Z"/><path class="cls-10" d="M146.81,329.05l-3.67,45.86,25.12-30.12,2-14.56a11.76,11.76,0,0,0-12.56-12h0A11.75,11.75,0,0,0,146.81,329.05Z"/><path class="cls-8" d="M204.43,256.26c.14,3-1.55,5.45-3.76,5.55s-4.11-2.23-4.24-5.19,1.55-5.46,3.76-5.56S204.3,253.29,204.43,256.26Z"/><path class="cls-21" d="M204.38,255c.13,3-1.55,5.45-3.76,5.55s-4.11-2.22-4.25-5.19,1.55-5.45,3.76-5.55S204.24,252,204.38,255Z"/><path class="cls-1" d="M202.91,252.92a1.61,1.61,0,1,1-1.68-1.53A1.61,1.61,0,0,1,202.91,252.92Z"/><path class="cls-8" d="M204.14,248s-1.87-5.33-5.93-5.33-6.83,6.66-6.83,6.66,3.38-3.45,6.79-3.68A8.44,8.44,0,0,1,204.14,248Z"/><path class="cls-13" d="M191.38,250.29a1.09,1.09,0,0,1-.39-.08,1,1,0,0,1-.53-1.31c.12-.3,3.09-7.27,7.75-7.27s6.79,5.75,6.87,6a1,1,0,1,1-1.88.67s-1.7-4.66-5-4.66c-2.78,0-5.21,4.36-5.91,6A1,1,0,0,1,191.38,250.29Z"/><path class="cls-19" d="M185.17,317.53h5a37.18,37.18,0,0,0-1.84-4.21l-4.15-.73.21,1.1A29.2,29.2,0,0,0,185.17,317.53Z"/><path class="cls-20" d="M188.28,313.32l-4.15-.73.21,1.1s0,.16.06.43c2,.43,3.69.71,4.68.87C188.63,314,188.28,313.32,188.28,313.32Z"/><polygon class="cls-22" points="273.53 387.94 252.47 387.94 247.37 399.54 247.37 432.56 290.8 418.59 273.53 387.94"/><path class="cls-23" d="M266.89,596.33v-8.57l48.85-6.88.63-6.63.64,6.63,48.85,6.88v8.57a7,7,0,1,1-9.11,0v-.66l-19.57-2.75v3.41a7,7,0,1,1-9.11,0v-1.5l-11.7-4.55-11.7,4.55v1.5a7,7,0,1,1-9.11,0v-3.41L276,595.67v.66a7,7,0,1,1-9.11,0Z"/><rect class="cls-24" x="306.91" y="514.3" width="18.93" height="67.95" transform="translate(632.74 1096.55) rotate(180)"/><rect class="cls-25" x="306.91" y="514.3" width="18.93" height="43.87" transform="translate(632.74 1072.47) rotate(180)"/><path class="cls-26" d="M358.73,401.25v99.57a12,12,0,0,0,10.58,11.89l47.18,5.52a11,11,0,0,1,9.71,10.91h0A11,11,0,0,1,413.74,540l-102.88.1c-5.94-.8-58.57-28.16-58.57-34.15l.16-105.39a12.66,12.66,0,0,1,12.66-12.64h80.31A13.31,13.31,0,0,1,358.73,401.25Z"/><path class="cls-22" d="M382.64,540.05a18.17,18.17,0,0,0-7.85-12l-15.28-13.67-11.27-10.07c-.59-.62-1.15-1.21-1.67-1.78s-.78-.85-1.13-1.27a27,27,0,0,1-1.77-2.24,15.35,15.35,0,0,1-1.56-2.76c-.11-.27-.21-.53-.31-.8a13.47,13.47,0,0,1-.69-4.46v-5.06H316.56v-2.42h0L286.22,478H338.6V461.27l6,.88c8.48,1.24,12.35-2.76,14.08-6V414l-.12-.43c-.11-.36-.23-.72-.35-1.07s-.17-.54-.27-.8-.29-.75-.44-1.12-.18-.48-.28-.71c-.16-.39-.35-.77-.53-1.16l-.29-.63c-.2-.4-.42-.8-.63-1.19l-.29-.55c-.24-.42-.49-.82-.74-1.23l-.28-.47c-.27-.42-.56-.84-.85-1.25l-.26-.39c-.31-.43-.63-.86-1-1.28l-.25-.32c-.34-.44-.71-.86-1.08-1.29-.07-.08-.13-.17-.21-.25q-.58-.66-1.2-1.29l-.18-.2c-.43-.44-.87-.86-1.32-1.29l-.14-.13c-.47-.44-.95-.86-1.44-1.28l-.1-.09c-.51-.43-1-.85-1.57-1.26l-.06,0q-.83-.64-1.68-1.23h0a46.9,46.9,0,0,0-7.07-4.05h0c-.79-.37-1.6-.72-2.42-1.05H289.31l-.23.09-.81.33-1.09.46-.73.33c-8.68,4-15.73,9.93-20.11,17.09a32.71,32.71,0,0,0-5,17.18h0v28.07a11.75,11.75,0,0,0,11.76,11.76h.28v12.38l-.13,0v23.87h0c0,.73,0,1.46.08,2.19,0,.3.07.6.1.9s.08.84.14,1.25.14.76.21,1.14.11.66.18,1,.22.86.34,1.29c.06.26.12.52.2.77.14.48.31.95.48,1.43.07.19.13.39.2.58.19.52.42,1,.64,1.53l.17.41c.26.55.53,1.08.82,1.61a2.1,2.1,0,0,0,.13.26q.47.84,1,1.65l.09.15c.36.57.75,1.12,1.16,1.67l0,.05a29.77,29.77,0,0,0,11.53,9.24h0c.15.07.29.15.44.21L303.29,532a18.22,18.22,0,0,1,8.8,8.1Z"/><path class="cls-22" d="M252.47,387.94V500.82a12,12,0,0,0,10.58,11.89l47.19,5.52a11,11,0,0,1,9.7,10.91h0A11,11,0,0,1,307.48,540l-54.34-7.38a12,12,0,0,1-10.36-11.85V397.63a9.69,9.69,0,0,1,9.69-9.69Z"/><path class="cls-27" d="M295.23,335.76s-12.19-42.65,9.41-50.61c0,0,5.79-8.53,18.91-8.34s32.88,5.44,28.59,45.18Z"/><path class="cls-28" d="M295.85,334.12s-6.67-23.32-1.4-38.69c-6.38,15.29.78,40.33.78,40.33L352.14,322c.06-.52.1-1,.14-1.53Z"/><path class="cls-29" d="M326.72,372.73v71.76l35.86,6.71c5.9-1.25,10.31-4.72,11.76-10V412.34C374.34,390.65,354.16,373,326.72,372.73Z"/><polygon class="cls-29" points="351.58 466.88 351.58 438.51 295.62 449.97 295.62 466.88 351.58 466.88"/><path class="cls-29" d="M337.55,466.88V441.23h36.79V412.34c0-21.88-20.53-39.62-48.33-39.62s-50.34,17.74-50.34,39.62v12.15H289v42.39Z"/><path class="cls-30" d="M352.89,466.88V422.07a1.31,1.31,0,0,0-1.31-1.3h0a1.3,1.3,0,0,0-1.3,1.3v44.81Z"/><path class="cls-30" d="M326,372.72a60.13,60.13,0,0,0-27.85,6.61c4.11,7.3,11.41,12.57,24.36,13.1,15,.61,23.31-5.74,27.89-14.52A57.53,57.53,0,0,0,326,372.72Z"/><path class="cls-29" d="M275.76,410.9c-.06.8-.09,1.6-.09,2.42v27.09a11.75,11.75,0,0,0,11.76,11.76l55.9-1V410.9Z"/><rect class="cls-1" x="309.99" y="377.88" width="28.59" height="89"/><path class="cls-10" d="M310,389.88a36,36,0,0,0,12.53,2.55c6.55.27,11.82-.79,16.06-2.8V377.88H310Z"/><polygon class="cls-29" points="302.51 451.09 338.1 447.88 318.77 435.55 305.7 433.27 302.51 451.09"/><polygon class="cls-30" points="318.2 443.49 319.17 443.87 319.56 441.63 319.13 441.4 317.95 440.89 317.46 442.38 318.2 443.49"/><rect class="cls-29" x="287.71" y="434.19" width="22.27" height="17.95" transform="translate(597.7 886.33) rotate(180)"/><path class="cls-30" d="M315.64,431.76l-25.83,4.67a1.13,1.13,0,0,0-.8,1.25c.06.82.65,1.43,1.23,1.32l25.4-4.6Z"/><path class="cls-30" d="M319.92,433.92s-4.29-6.56-9.54-5.65-8.37-.06-10,1.4-4.54,1.84-4.88,3.43.24,2.64,1.14,4.74,12.78,5.55,16.47,5.35,5.06.3,5.06.3Z"/><path class="cls-30" d="M313.13,449.67c.83-.09,3.84-.7,5.48-1,.69-.12,1.4-.22,2.08-.4l-30.38.53a11.76,11.76,0,0,1-11.76-11.76v-10h-2.88v13.36a11.75,11.75,0,0,0,11.76,11.76l8.2.09a6.75,6.75,0,0,1,4.7-1.6c3.44.38,7.07-.32,10.56-.51A12.74,12.74,0,0,1,313.13,449.67Z"/><path class="cls-30" d="M336.78,445.84,297,450.19a1.34,1.34,0,0,0-1.19,1.43,1.27,1.27,0,0,0,1.41,1.16l42.06-4.59a1.35,1.35,0,0,0,.72-.32A7.49,7.49,0,0,1,336.78,445.84Z"/><rect class="cls-30" x="287.71" y="450.69" width="2.6" height="16.19"/><path class="cls-30" d="M295.83,422.11v13.44h2.6V422.11a1.3,1.3,0,0,0-1.3-1.3h0A1.3,1.3,0,0,0,295.83,422.11Z"/><path class="cls-30" d="M277.1,439.76a1.44,1.44,0,0,0,1.44-1.44v-26c0-21.5,21.77-39,48.9-39.6l-1.43,0c-27.81,0-50.34,17.74-50.34,39.62v26a1.44,1.44,0,0,0,1.43,1.44Z"/><path class="cls-31" d="M325.24,372.72a37.3,37.3,0,0,0-10.11,1.38v8.62a20.72,20.72,0,0,0,8,1.77,19.49,19.49,0,0,0,10.28-2v-8.82A36.65,36.65,0,0,0,325.24,372.72Z"/><rect class="cls-19" x="320.39" y="385.17" width="7.79" height="52.15"/><rect class="cls-32" x="320.39" y="385.17" width="7.79" height="1.24"/><path class="cls-7" d="M321.16,431.83s-4.29-6.56-9.54-5.65-8.37-.06-10,1.4-4.54,1.84-4.88,3.44.24,2.64,1.14,4.73,12.78,5.56,16.47,5.35,5.06.31,5.06.31Z"/><path class="cls-8" d="M319.1,429.36,317,441.07a8.75,8.75,0,0,1,2.45.34l1.72-9.58A17.25,17.25,0,0,0,319.1,429.36Z"/><polygon class="cls-29" points="363.45 451.17 319.17 443.87 320.86 431.83 322.04 430.21 363.45 436.44 363.45 451.17"/><polygon class="cls-19" points="324.32 379.48 324.32 379.45 324.29 379.46 324.25 379.45 324.25 379.48 319.5 381.61 319.5 382.7 320.37 385.37 324.25 385.37 324.32 385.37 328.2 385.37 329.07 382.7 329.07 381.61 324.32 379.48"/><polygon class="cls-32" points="328.61 384.11 329.07 382.7 329.07 381.61 324.32 379.48 324.32 379.45 324.29 379.46 324.25 379.45 324.25 379.48 319.5 381.61 319.5 382.7 319.94 384.05 324.22 381.81 328.61 384.11"/><path class="cls-7" d="M348.41,315.6a6,6,0,0,1,.85,0c4.87.29,8.49,6.13,8.07,13s-4.69,12.27-9.57,12a8,8,0,0,1-.84-.11Z"/><path class="cls-1" d="M324.22,368.14c-8.24,0-14.91,6-14.91,13.46v3.8a1.58,1.58,0,0,0,2.31,1.4l12.6-6.58,12.61,6.58a1.58,1.58,0,0,0,2.31-1.4v-3.8C339.14,374.16,332.46,368.14,324.22,368.14Z"/><path class="cls-7" d="M343.79,432.69c2.5.34,5.28.66,8.1,1.06a4.3,4.3,0,0,0-.09-2.86c-.59-1.42-3.55-1.25-5.36-2.32s-4.72.38-10,.48a7.66,7.66,0,0,0-5,2.26C335.27,432.05,339.47,432.11,343.79,432.69Z"/><path class="cls-7" d="M314.8,358.63v16.3c0,1.5,4.69,2.71,10.47,2.71s10.47-1.21,10.47-2.71v-16.3Z"/><path class="cls-8" d="M325.81,371.72a31.45,31.45,0,0,0,9.93-1.73V358.63H314.8v11.62A32.43,32.43,0,0,0,325.81,371.72Z"/><path class="cls-8" d="M314.8,365.32a25.23,25.23,0,0,0,8.73,2,24.61,24.61,0,0,0,12.21-2.74v-5.93H314.8Z"/><path class="cls-7" d="M296.54,319.08a6,6,0,0,0-.84.11c-4.79.94-7.59,7.2-6.26,14s6.3,11.54,11.09,10.6a7.62,7.62,0,0,0,.82-.22Z"/><path class="cls-8" d="M300.53,343.78a7.62,7.62,0,0,0,.82-.22l-4.81-24.48a6,6,0,0,0-.84.11,6.46,6.46,0,0,0-2.86,1.35c.08.3.17.61.26.93a103.17,103.17,0,0,1,3.09,14.66,68.78,68.78,0,0,0,1.3,7.51A6.52,6.52,0,0,0,300.53,343.78Z"/><path class="cls-7" d="M296.2,322.73c-2-29.74,10.6-34,25.79-34.42s27.13,1,29.23,33c1.08,16.46,3.47,45.26-24.05,46S297.28,339.2,296.2,322.73Z"/><path class="cls-8" d="M350.51,318.16l-.38-1.87s-.82-13.94-4-20.19H300.76v16.22a81.69,81.69,0,0,1,3.7-11.95s13.31,5.78,37.61,1.9c0,0,6.43,15.54,8.44,23.31Z"/><path class="cls-27" d="M349.59,320.9c.08,1.22.51,7.14.52,8.13a4,4,0,0,1,0,.49c-1.27,13.29-7.79,12.88-9.42,12.56a4.6,4.6,0,0,0-.91-.08l-22.48.52a4.32,4.32,0,0,0-2.12.62c-5.94,3.54-10.86-.4-13.82-4-2.26-3.42-2.56-8.92-2.33-13.4h-2.58c.17,2.72.37,5.61.72,8.53,2.11,15.67,0,36.56,30,34.93,34.57-1.87,25.9-26.61,24.05-47.87Z"/><path class="cls-33" d="M327.08,367.38c-30,1.63-27.92-19.27-30-34.93,0-.16,0-.31-.05-.46h-.1c.07.74.15,1.49.24,2.24,2.11,15.67,0,36.56,30,34.93,24-1.3,27.16-13.61,26.23-28.13C353.94,354.76,350.08,366.13,327.08,367.38Z"/><path class="cls-15" d="M320.42,345.5a5.84,5.84,0,0,0-.77,3.54c.49,4.11,5.58,6.88,11.37,6.19s10.1-4.57,9.61-8.68a5.8,5.8,0,0,0-1.56-3.26Z"/><path class="cls-16" d="M329.25,351.17a12.22,12.22,0,0,0-9.22-.69c1.36,3.29,5.91,5.36,11,4.75a14.73,14.73,0,0,0,2.88-.64A13.89,13.89,0,0,0,329.25,351.17Z"/><path class="cls-1" d="M319.71,349.33l20.9-1.4a5.3,5.3,0,0,0,0-1.38,5.8,5.8,0,0,0-1.56-3.26l-18.65,2.21a5.84,5.84,0,0,0-.77,3.54C319.66,349.14,319.69,349.23,319.71,349.33Z"/><path class="cls-15" d="M329.45,356.17c-5.52.05-10.13-2.89-10.62-7a6.67,6.67,0,0,1,.86-4l.21-.37,19.49-2.31.29.31a6.7,6.7,0,0,1,1.78,3.73c.54,4.55-4.1,8.86-10.34,9.6C330.56,356.12,330,356.16,329.45,356.17Zm-8.5-9.89a4.74,4.74,0,0,0-.47,2.66c.43,3.65,5.12,6.1,10.45,5.47s9.31-4.11,8.88-7.76a4.79,4.79,0,0,0-1.08-2.48Z"/><path class="cls-8" d="M319,322.92c.07,2.4-1.33,4.39-3.12,4.44s-3.3-1.87-3.36-4.27,1.33-4.39,3.13-4.44S318.92,320.51,319,322.92Z"/><path class="cls-21" d="M319,321.9c.06,2.41-1.34,4.39-3.13,4.44s-3.3-1.86-3.36-4.27,1.34-4.39,3.13-4.44S318.89,319.5,319,321.9Z"/><path class="cls-1" d="M317.8,320.2a1.3,1.3,0,1,1-1.34-1.27A1.3,1.3,0,0,1,317.8,320.2Z"/><path class="cls-8" d="M341.74,320.08c.07,2.4-1.33,4.39-3.13,4.44s-3.29-1.87-3.35-4.27,1.33-4.4,3.13-4.44S341.68,317.67,341.74,320.08Z"/><path class="cls-21" d="M341.72,319.06c.06,2.4-1.34,4.39-3.13,4.44s-3.3-1.87-3.36-4.27,1.34-4.39,3.13-4.44S341.65,316.65,341.72,319.06Z"/><path class="cls-1" d="M340.56,317.35a1.31,1.31,0,0,1-1.27,1.34,1.3,1.3,0,1,1,1.27-1.34Z"/><path class="cls-18" d="M330.21,327.58c-1.7-.17-3-6.8-3.39-10.08l-2.54.17c.07,3.9.84,16.92,2.56,18.31C331.89,340.07,338.55,328.42,330.21,327.58Z"/><path class="cls-8" d="M307.23,318.88a12,12,0,0,1,12.72-2s-2.9-4.64-7.78-3.36S307.23,318.88,307.23,318.88Z"/><path class="cls-27" d="M307,319.54a.73.73,0,0,0,.56-.41c1.42-3,3.18-4.61,5.23-4.93h0c3.54-.52,6.95,3.09,7,3.13a.75.75,0,0,0,1.1-1c-.16-.18-4-4.23-8.3-3.59h0c-2.57.39-4.71,2.33-6.36,5.76a.75.75,0,0,0,.35,1A.67.67,0,0,0,307,319.54Z"/><path class="cls-8" d="M329.08,313.57a12.06,12.06,0,0,1,12.72-2s-2.9-4.63-7.77-3.35S329.08,313.57,329.08,313.57Z"/><path class="cls-27" d="M328.83,314.24a.77.77,0,0,0,.56-.42c1.42-3,3.18-4.61,5.23-4.92h0c3.54-.52,6.95,3.09,7,3.13a.75.75,0,0,0,1.1-1c-.16-.17-4-4.23-8.3-3.59h0c-2.57.38-4.71,2.32-6.36,5.75a.76.76,0,0,0,.79,1.07Z"/><path class="cls-33" d="M307.34,348.21s10.93,3.53,23.45-4.18c0,0,11.92,3,18.38-3.12,0,0-7.66-9.76-19.62-3C329.55,338,315.3,334.39,307.34,348.21Z"/><path class="cls-30" d="M359.3,448.49,320,442.57a1.32,1.32,0,0,0-1.5,1.08h0a1.32,1.32,0,0,0,1.1,1.52l39.33,5.9a1.3,1.3,0,1,0,.36-2.58Z"/><path class="cls-30" d="M364.27,435.07l-42.35-6a1.34,1.34,0,0,0-1.52,1.11h0a1.35,1.35,0,0,0,1.14,1.56l42.37,5.91a1.3,1.3,0,1,0,.36-2.58Z"/><path class="cls-30" d="M359.3,448.49s12.63.43,15-7.26c0,0-1.6,11.86-15.4,9.84l-2.18-2.15Z"/><polygon class="cls-30" points="289.42 458.52 337.99 453.79 351.58 457.78 352.09 449.24 335.2 446.27 289.31 451.31 289.42 458.52"/><polygon class="cls-31" points="309.99 458.52 337.99 455.79 338.58 455.96 338.58 448.86 335.2 448.27 309.99 451.04 309.99 458.52"/><path class="cls-27" d="M292.42,316.63s3.54,7,4.14,11.13l2.07.75s3.56-21.18,7.49-30.28c0,0,13.31,5.78,37.61,1.89,0,0,5.15,17.26,6,23.46l1.52.14.52-9.57s-1-16.4-4.87-21.61-27.78-9.29-27.78-9.29l-11.91,5.6s-8.56,6.25-8.65,6.54-6.16,13.83-6.16,13.83Z"/><path class="cls-28" d="M306.12,298.23a28.2,28.2,0,0,1-6.95-3.36s2.42,4.63,5.72,6.6Z"/><path class="cls-31" d="M325.65,464a1.19,1.19,0,1,1-1.19-1.19A1.19,1.19,0,0,1,325.65,464Z"/><path class="cls-31" d="M325.65,457.93a1.19,1.19,0,1,1-1.19-1.19A1.19,1.19,0,0,1,325.65,457.93Z"/><path class="cls-29" d="M287.71,468l.41,19.22a29.76,29.76,0,0,0,17.94,27.32l12.06,5.23A18.19,18.19,0,0,1,329,535.1l1.72,55h24.61l2.28-59.71a18.2,18.2,0,0,0-7.52-14.74L331.4,502.13V471.21Z"/><path class="cls-29" d="M356,473.63l-5.13,4.31c0,5.35,7.48,9.09,12.26,14.05l26.55,23.74a18.2,18.2,0,0,1,8.12,15.15v59.25h-28V544.27c-.5-6.74-4.13-11.43-10.64-16.86l-30.08-20-.84-33.76Z"/><path class="cls-29" d="M353.59,479.68l38.68,26a14.21,14.21,0,0,1,5.48,11.2v39.58L375.67,525l-25.39-33.33-5.86-12Z"/><path class="cls-30" d="M381.42,498.41l-27.83-18.73c-4.78-5-4.13,3.36-4.13-2l7.49-4.06H331.4v-2.42L287.71,468l.41,19.22a29.76,29.76,0,0,0,17.49,27.11l12.51,5.44v-2.81A14.88,14.88,0,0,1,333,502.06h8.92a9.09,9.09,0,0,1,6.64,2.89l10.69,11.49v-1.07c0-7.35,9-17,22.17-17Z"/><path class="cls-5" d="M372.58,608.54H424.2a2.75,2.75,0,0,0,2.75-2.75h0a17.25,17.25,0,0,0-17.25-17.25H369.83v17.25A2.75,2.75,0,0,0,372.58,608.54Z"/><path class="cls-6" d="M333.45,608.54h51.63a2.75,2.75,0,0,0,2.75-2.75h0a17.25,17.25,0,0,0-17.25-17.25H330.7v17.25A2.75,2.75,0,0,0,333.45,608.54Z"/><polygon class="cls-34" points="209.93 608.54 266.85 471.73 225.57 471.73 168.64 608.54 209.93 608.54"/><polygon class="cls-34" points="478.65 608.54 421.73 471.73 463.01 471.73 519.94 608.54 478.65 608.54"/><polygon class="cls-35" points="254.02 502.56 266.85 471.73 225.57 471.73 212.74 502.56 254.02 502.56"/><polygon class="cls-35" points="475.84 502.56 463.01 471.73 421.73 471.73 434.56 502.56 475.84 502.56"/><path class="cls-7" d="M488.81,379h0l-.18-.16a5.29,5.29,0,0,0-.43-.32,9.87,9.87,0,0,1-2.18-3.69c-1.32-3.48-1.37-2.56-2.52-6.38s-4.64-6.84-5.71-5.47c-.81,1,.47,3.44.82,4.46.44,1.32,1.62,4.41-.37,5.1-1,.35-2.44-.64-3.28-1.15a29,29,0,0,1-3.19-2.34c-1.73-1.44-3.36-3-5-4.58-1.8-1.8-4.44-6.89-5.63-5.64a2.83,2.83,0,0,0-.55,2.25c-.74-1.13-1.2-1.63-2.19-1.11-.64.33-.48,2.43,0,3.39a1.13,1.13,0,0,0-1.48.64c-.24.87,1,2.74,2.58,4.34-3.36.69-3.4,2,7.78,11.35a56.54,56.54,0,0,0,9.28,6.3h0s6.15,3,6.22,9,10.65-.09,10.65-.09S492.89,382.66,488.81,379Z"/><path class="cls-9" d="M483.37,391.44c-.31-6-7.76-9.27-7.76-9.27h0a75.26,75.26,0,0,1-11.3-6.7c-2.59-1.85-4.69-3.4-6.36-4.7,1,1.58,3.75,4.25,9.34,8.91a56.54,56.54,0,0,0,9.28,6.3h0s6.15,3,6.22,9,10.65-.09,10.65-.09,0-.77-.15-2C489.62,394.15,483.59,395.61,483.37,391.44Z"/><polygon class="cls-10" points="498.93 393.09 496.06 384.72 479.74 392.94 482.54 402.62 498.93 393.09"/><path class="cls-36" d="M529.15,430c-.12-.62,24.83-39.21,24.64-39.8l-40.15,36.72-14.85-36.72s-12.56,5-18.75,7.84l16.5,40.6A16.9,16.9,0,0,0,529.15,430Z"/><path class="cls-37" d="M556.3,386.73,525.94,414.5c-10.12,13.41-20.65,27.09-23.52,29.16a5.59,5.59,0,0,1-2.36,1,18.14,18.14,0,0,0,30.85-16.18c-.12-.59,21.83-34.62,25.84-41.53Z"/><path class="cls-5" d="M530.28,608.54H478.65a2.75,2.75,0,0,1-2.75-2.75h0a17.25,17.25,0,0,1,17.25-17.25H533v17.25A2.75,2.75,0,0,1,530.28,608.54Z"/><path class="cls-4" d="M586.42,506.16c-1.09,0-44.44-.77-68-1.19a14.7,14.7,0,0,0-15,14.7v68.87h29.5V531.29h53.5Z"/><polygon class="cls-38" points="587.68 378.04 587.68 353.43 564.06 360.08 564.06 378.04 587.68 378.04"/><path class="cls-3" d="M539.42,506.16c-1.09,0-44.44-.77-68-1.19a14.7,14.7,0,0,0-15,14.7v68.87h29.5V531.29h53.5Z"/><polygon class="cls-4" points="488.95 517.89 468.29 517.89 468.29 588.54 485.92 588.54 485.92 531.29 488.95 531.29 488.95 517.89"/><path class="cls-36" d="M577.67,369.73c21.58-.29,39.34,19.49,39.67,44.19L612.82,510l-78.13,1.06L539.21,415C538.88,390.28,556.1,370,577.67,369.73Z"/><polygon class="cls-37" points="539.1 417.31 534.69 511.09 555.12 510.81 555.12 417.31 539.1 417.31"/><path class="cls-9" d="M564.06,363.05c2.53-.38,5.2-.88,8-1.39a122.87,122.87,0,0,0,15.64-3.5v-8.6l-23.62,6.65Z"/><path class="cls-37" d="M577.67,369.73a36.13,36.13,0,0,0-25,10.88c2.75,1,5.75,1.93,8.9,2.92,11.63,3.65,29.08,9.8,43.53-1.51C597.93,374.29,588.26,369.59,577.67,369.73Z"/><path class="cls-6" d="M483.16,608.54H431.53a2.75,2.75,0,0,1-2.75-2.75h0A17.25,17.25,0,0,1,446,588.54h39.88v17.25A2.75,2.75,0,0,1,483.16,608.54Z"/><path class="cls-23" d="M630.52,594.35v-2.94a8.07,8.07,0,0,0-6.94-8l-49.82-7-.73-7.71-.74,7.71-49.81,7a8.07,8.07,0,0,0-7,8v2.94a8.08,8.08,0,1,0,10.58,0v-.76l22.74-3.2v4a8.08,8.08,0,1,0,10.58,0v-1.74l13.6-5.29,13.59,5.29v1.74a8.09,8.09,0,1,0,10.58,0v-4l22.74,3.2v.76a8.09,8.09,0,1,0,10.58,0Z"/><rect class="cls-24" x="562.03" y="499.04" width="22" height="78.88"/><rect class="cls-25" x="562.03" y="499.04" width="22" height="52.67"/><path class="cls-26" d="M578.67,392.78h75.06a13.86,13.86,0,0,1,13.69,16l-18.14,116a13.85,13.85,0,0,1-13.69,11.71H477.06a13.85,13.85,0,0,1-13.85-13.85h0a13.86,13.86,0,0,1,13.85-13.86h58.18a13.86,13.86,0,0,0,13.66-11.49l16.12-93A13.84,13.84,0,0,1,578.67,392.78Z"/><path class="cls-22" d="M653.73,392.78H579.66a13.85,13.85,0,0,1,13.69,16l-18.13,116a13.85,13.85,0,0,1-13.69,11.71h74.06a13.85,13.85,0,0,0,13.69-11.71l18.14-116A13.86,13.86,0,0,0,653.73,392.78Z"/><polygon class="cls-11" points="385.01 429.34 385.01 426.13 472.42 470.63 405.22 471.73 385.01 429.34"/><polygon class="cls-10" points="385.01 426.13 448.44 426.13 467.77 464.56 403.34 464.56 385.01 426.13"/><polygon class="cls-1" points="390.97 428.9 445.26 428.9 461.8 461.79 406.66 461.79 390.97 428.9"/><polygon class="cls-39" points="390.97 428.9 461.8 461.79 406.66 461.79 390.97 428.9"/><path class="cls-7" d="M457,466.88H436.71s-4.55-13.53-3.64-17.09,9.71-3.31,14.26-1.56,11.83,2.5,14.25,5.75S457,466.88,457,466.88Z"/><path class="cls-9" d="M461.58,454a7.41,7.41,0,0,0-2.77-2.1h-.89a7.93,7.93,0,0,0-7.33,5h0a8.27,8.27,0,0,0,3.06,10H457S464,457.23,461.58,454Z"/><path class="cls-10" d="M480,451.36H459.77c-2.43,0-4.62,1.82-5.56,4.62-1.52,4.58.87,9.7,4.81,10.31l20.93.59Z"/><path class="cls-36" d="M554.32,391.35a5.7,5.7,0,0,0-4.89,2c-4.83,5.32-38.65,52.25-44.17,56.23a5.6,5.6,0,0,1-3.28,1.1H465.61c-2.64,0-5,2-6,5h0c-1.66,5,.94,10.53,5.22,11.2l56.8,1.59a6.08,6.08,0,0,0,4.09-2.35l32-39.8A8.41,8.41,0,0,0,559,424C561.38,417.59,573.49,393.74,554.32,391.35Z"/><path class="cls-40" d="M511.06,453.26a1.32,1.32,0,0,1-1.32,1.31h-43.6a1.31,1.31,0,0,1,0-2.62h43.6a1.31,1.31,0,0,1,1.32,1.31Z"/><path class="cls-36" d="M556.88,377l3.83-4.91,28.22-7.48a7.23,7.23,0,0,1,8.52,5.91l1,5.74Z"/><path class="cls-7" d="M579.41,282.5c-14.93-3.49-28.27-2.53-34,27-1.24,6.41-2.86,16.05-2.71,25.27a24,24,0,0,1,6-2.69c5.58-1.52,7.94,7.13,2.38,8.65a20.13,20.13,0,0,0-7.34,4.25c2.14,9.74,7.81,17,20.46,15.88,26.87-2.34,32.05-22.37,35.21-38.71C605.6,290.45,594.33,286,579.41,282.5Z"/><path class="cls-9" d="M566.71,342.52v18.05c14.33-1.91,22-9.18,26.57-18.05Z"/><path class="cls-9" d="M573.28,302.6V284.39h-15.5c-3.51,2.48-6.57,6.58-9,13a71,71,0,0,1,6.16,10.25c2.12,4.66,3.32,14,5.09,18.75,3.16-.55,3.35-13.32,3.53-15.47C564.09,304,569.71,300,573.28,302.6Z"/><path class="cls-9" d="M571.63,302.63s5.15,1.16,3.36,13.07-8.74,8.32-8.74,8.32.89,5.67,6.16,5.41,20.79-13.6,13-21.24-12-9.84-12-9.84Z"/><path class="cls-8" d="M547.12,302.46c.23,0,.18.05.41.05,4.77,0,8.34,5.66,8.34,5.66a15.75,15.75,0,0,0-9.52-2.83Z"/><path class="cls-18" d="M538.91,319.21c2,0,6.89-10.89,7.62-14.64l2.54.36c-.42,4.5-4.9,22.82-7,24.27C535.88,333.48,529.2,319.47,538.91,319.21Z"/><path class="cls-8" d="M548.57,312.88c-.76,2.32-.45,4.64.71,5.2s2.71-.86,3.48-3.17.45-4.64-.7-5.2S549.34,310.57,548.57,312.88Z"/><path class="cls-21" d="M547.72,312c-.34,2.46.62,4.7,2.13,5s3-1.44,3.36-3.9-.61-4.69-2.13-5S548.06,309.55,547.72,312Z"/><path class="cls-1" d="M548.91,310.43a1.34,1.34,0,0,0,.92,1.55,1.16,1.16,0,0,0,1.28-1.11,1.34,1.34,0,0,0-.92-1.55A1.15,1.15,0,0,0,548.91,310.43Z"/><path class="cls-41" d="M546.86,301.65l.3,0h0c5.51,0,9.53,5.77,9.7,6a1,1,0,0,1-.25,1.31.93.93,0,0,1-1.31-.24s-3.63-5.19-8.14-5.19h0l-.3,0Z"/><path class="cls-41" d="M591.12,277.32a8.6,8.6,0,0,1-1.12-.51,19.28,19.28,0,0,1-2.66-2A24.45,24.45,0,0,0,572,269.29c-8,0-13.31,4.38-19.77,8.28-1.06.64-5.88,2.56-5.74,4.14a35.34,35.34,0,0,0,3.13,11.88c2.09,4.49,5.83,9.28,7.25,14.05s0,13.7,1.09,18.63c3.21-.11,5.14-12.73,5.61-14.84,2.16-9.83,14.15-12.19,12.58,1.57s-.72,35.73,15.2,39.76c5.42,1.37,14.39-15.86,19.91-23.16,8.34-11,9.47-26.1,2.25-37.88A29.42,29.42,0,0,0,602,280.84a40,40,0,0,0-3.87-1.81C595.91,278.14,593.37,278.16,591.12,277.32Z"/><path class="cls-41" d="M579.83,339.29c-22.6,4.7-18.25-26.65-18.25-26.65l-4,.41-.47,7.48c.22,4.37-6.28,9.75-8.92,7.84s-7.68.5-7.68.5-.85.59-1.07,2.9-.3,4.12.3,4.94c2.28,3.13,6.74-3.83,8.76-.31,1.37,2.38-4.08,5.45-5.14,6.32-.89.72-2,1.41-2.19,2.62s.08,2.72,1.14,3.32.63,1.88-.18,3.86a23,23,0,0,0-1.6,11.63c.56,4.22,2.19,6.68,8.56,8C573.43,377,587.14,337.77,579.83,339.29Z"/><path class="cls-42" d="M551.35,371.25c-6.37-1.34-8-3.9-8.56-8.32a25,25,0,0,1,1.61-12.15c.8-2.07,1.21-3.42.18-4s-1.36-2.31-1.15-3.47a2.76,2.76,0,0,1,.33-.87l-.42.31c-.89.72-2,1.41-2.19,2.62s.08,2.72,1.14,3.32.63,1.88-.18,3.86a23,23,0,0,0-1.6,11.63c.56,4.22,2.19,6.68,8.56,8a20.57,20.57,0,0,0,12.81-1.47A19.57,19.57,0,0,1,551.35,371.25Z"/><rect class="cls-43" x="155.29" y="466.73" width="391.06" height="12.95"/><rect class="cls-34" x="155.29" y="473.21" width="391.06" height="6.47"/><path class="cls-42" d="M575.87,328.51s6.75,17.93,14.13,16.8,19-12.54,19-12.54-11.48,20.4-15.77,20.66S576.57,348.67,575.87,328.51Z"/><path class="cls-6" d="M162.9,433.39c-23-2.09-51.66-10.26-58.31-12.22a1.76,1.76,0,0,0-2.21,1.26,7.17,7.17,0,0,0,.36,3.86,1.73,1.73,0,0,0,1,1c19.48,7.92,57.82,11.09,57.82,11.09C164.23,437.07,162.9,433.39,162.9,433.39Z"/><path class="cls-11" d="M165.12,436.12c-.23,1.91-3,3.15-6.27,2.76s-5.66-2.27-5.43-4.19,3.05-3.16,6.28-2.76S165.36,434.2,165.12,436.12Z"/><path class="cls-10" d="M164.65,435.46c-.11.93-1.48,1.53-3.05,1.34s-2.76-1.1-2.64-2,1.48-1.53,3-1.34S164.77,434.52,164.65,435.46Z"/><path class="cls-3" d="M105.81,421.53a8,8,0,0,0-.39,6.44l1.12,1.18.58-.57s-1.2-5,.55-6.52A1.33,1.33,0,0,0,105.81,421.53Z"/><path class="cls-3" d="M123.29,426.18a8.93,8.93,0,0,0-.39,6.82l1.13,1.25.58-.61s-1.2-5.41.55-7A1.32,1.32,0,0,0,123.29,426.18Z"/><path class="cls-3" d="M142.78,430.45a16.73,16.73,0,0,0-.34,6.81l1,1.25.51-.6s-.72-5.07.49-7.15C144.41,430.76,144,429.84,142.78,430.45Z"/></g></svg>